<?xml version="1.0" standalone="no"?>
<svg xmlns:xlink="http://www.w3.org/1999/xlink" id="wave" style="transform:rotate(0deg); transition: 0.3s" viewBox="0 0 1440 300" version="1.1" xmlns="http://www.w3.org/2000/svg"><defs><linearGradient id="sw-gradient-0" x1="0" x2="0" y1="1" y2="0"><stop stop-color="rgba(103, 37, 78, 1)" offset="0%"/><stop stop-color="rgba(204, 158, 164, 1)" offset="100%"/></linearGradient></defs><path style="transform:translate(0, 0px); opacity:1" fill="url(#sw-gradient-0)" d="M0,120L48,120C96,120,192,120,288,145C384,170,480,220,576,215C672,210,768,150,864,110C960,70,1056,50,1152,55C1248,60,1344,90,1440,110C1536,130,1632,140,1728,125C1824,110,1920,70,2016,75C2112,80,2208,130,2304,140C2400,150,2496,120,2592,135C2688,150,2784,210,2880,220C2976,230,3072,190,3168,180C3264,170,3360,190,3456,205C3552,220,3648,230,3744,230C3840,230,3936,220,4032,185C4128,150,4224,90,4320,100C4416,110,4512,190,4608,225C4704,260,4800,250,4896,215C4992,180,5088,120,5184,120C5280,120,5376,180,5472,205C5568,230,5664,220,5760,225C5856,230,5952,250,6048,255C6144,260,6240,250,6336,240C6432,230,6528,220,6624,195C6720,170,6816,130,6864,110L6912,90L6912,300L6864,300C6816,300,6720,300,6624,300C6528,300,6432,300,6336,300C6240,300,6144,300,6048,300C5952,300,5856,300,5760,300C5664,300,5568,300,5472,300C5376,300,5280,300,5184,300C5088,300,4992,300,4896,300C4800,300,4704,300,4608,300C4512,300,4416,300,4320,300C4224,300,4128,300,4032,300C3936,300,3840,300,3744,300C3648,300,3552,300,3456,300C3360,300,3264,300,3168,300C3072,300,2976,300,2880,300C2784,300,2688,300,2592,300C2496,300,2400,300,2304,300C2208,300,2112,300,2016,300C1920,300,1824,300,1728,300C1632,300,1536,300,1440,300C1344,300,1248,300,1152,300C1056,300,960,300,864,300C768,300,672,300,576,300C480,300,384,300,288,300C192,300,96,300,48,300L0,300Z"/><defs><linearGradient id="sw-gradient-1" x1="0" x2="0" y1="1" y2="0"><stop stop-color="rgba(204, 158, 164, 1)" offset="0%"/><stop stop-color="rgba(103, 37, 78, 1)" offset="100%"/></linearGradient></defs><path style="transform:translate(0, 50px); opacity:0.9" fill="url(#sw-gradient-1)" d="M0,210L48,205C96,200,192,190,288,195C384,200,480,220,576,235C672,250,768,260,864,220C960,180,1056,90,1152,55C1248,20,1344,40,1440,45C1536,50,1632,40,1728,30C1824,20,1920,10,2016,10C2112,10,2208,20,2304,45C2400,70,2496,110,2592,130C2688,150,2784,150,2880,135C2976,120,3072,90,3168,110C3264,130,3360,200,3456,215C3552,230,3648,190,3744,155C3840,120,3936,90,4032,100C4128,110,4224,160,4320,160C4416,160,4512,110,4608,110C4704,110,4800,160,4896,190C4992,220,5088,230,5184,225C5280,220,5376,200,5472,195C5568,190,5664,200,5760,190C5856,180,5952,150,6048,150C6144,150,6240,180,6336,205C6432,230,6528,250,6624,215C6720,180,6816,90,6864,45L6912,0L6912,300L6864,300C6816,300,6720,300,6624,300C6528,300,6432,300,6336,300C6240,300,6144,300,6048,300C5952,300,5856,300,5760,300C5664,300,5568,300,5472,300C5376,300,5280,300,5184,300C5088,300,4992,300,4896,300C4800,300,4704,300,4608,300C4512,300,4416,300,4320,300C4224,300,4128,300,4032,300C3936,300,3840,300,3744,300C3648,300,3552,300,3456,300C3360,300,3264,300,3168,300C3072,300,2976,300,2880,300C2784,300,2688,300,2592,300C2496,300,2400,300,2304,300C2208,300,2112,300,2016,300C1920,300,1824,300,1728,300C1632,300,1536,300,1440,300C1344,300,1248,300,1152,300C1056,300,960,300,864,300C768,300,672,300,576,300C480,300,384,300,288,300C192,300,96,300,48,300L0,300Z"/></svg>