<?xml version="1.0" standalone="no"?>
<svg xmlns:xlink="http://www.w3.org/1999/xlink" id="wave" style="transform:rotate(0deg); transition: 0.3s" viewBox="0 0 1440 430" version="1.1" xmlns="http://www.w3.org/2000/svg"><defs><linearGradient id="sw-gradient-0" x1="0" x2="0" y1="1" y2="0"><stop stop-color="rgba(103, 37, 78, 1)" offset="0%"/><stop stop-color="rgba(204, 158, 164, 1)" offset="100%"/></linearGradient></defs><path style="transform:translate(0, 0px); opacity:1" fill="url(#sw-gradient-0)" d="M0,258L48,272.3C96,287,192,315,288,336.8C384,358,480,373,576,336.8C672,301,768,215,864,150.5C960,86,1056,43,1152,43C1248,43,1344,86,1440,121.8C1536,158,1632,186,1728,229.3C1824,272,1920,330,2016,308.2C2112,287,2208,186,2304,129C2400,72,2496,57,2592,78.8C2688,100,2784,158,2880,179.2C2976,201,3072,186,3168,215C3264,244,3360,315,3456,351.2C3552,387,3648,387,3744,365.5C3840,344,3936,301,4032,250.8C4128,201,4224,143,4320,100.3C4416,57,4512,29,4608,28.7C4704,29,4800,57,4896,114.7C4992,172,5088,258,5184,293.8C5280,330,5376,315,5472,265.2C5568,215,5664,129,5760,136.2C5856,143,5952,244,6048,279.5C6144,315,6240,287,6336,293.8C6432,301,6528,344,6624,344C6720,344,6816,301,6864,279.5L6912,258L6912,430L6864,430C6816,430,6720,430,6624,430C6528,430,6432,430,6336,430C6240,430,6144,430,6048,430C5952,430,5856,430,5760,430C5664,430,5568,430,5472,430C5376,430,5280,430,5184,430C5088,430,4992,430,4896,430C4800,430,4704,430,4608,430C4512,430,4416,430,4320,430C4224,430,4128,430,4032,430C3936,430,3840,430,3744,430C3648,430,3552,430,3456,430C3360,430,3264,430,3168,430C3072,430,2976,430,2880,430C2784,430,2688,430,2592,430C2496,430,2400,430,2304,430C2208,430,2112,430,2016,430C1920,430,1824,430,1728,430C1632,430,1536,430,1440,430C1344,430,1248,430,1152,430C1056,430,960,430,864,430C768,430,672,430,576,430C480,430,384,430,288,430C192,430,96,430,48,430L0,430Z"/><defs><linearGradient id="sw-gradient-1" x1="0" x2="0" y1="1" y2="0"><stop stop-color="rgba(204, 158, 164, 1)" offset="0%"/><stop stop-color="rgba(103, 37, 78, 1)" offset="100%"/></linearGradient></defs><path style="transform:translate(0, 50px); opacity:0.9" fill="url(#sw-gradient-1)" d="M0,0L48,43C96,86,192,172,288,236.5C384,301,480,344,576,315.3C672,287,768,186,864,136.2C960,86,1056,86,1152,71.7C1248,57,1344,29,1440,43C1536,57,1632,115,1728,114.7C1824,115,1920,57,2016,93.2C2112,129,2208,258,2304,301C2400,344,2496,301,2592,293.8C2688,287,2784,315,2880,329.7C2976,344,3072,344,3168,286.7C3264,229,3360,115,3456,64.5C3552,14,3648,29,3744,93.2C3840,158,3936,272,4032,279.5C4128,287,4224,186,4320,143.3C4416,100,4512,115,4608,143.3C4704,172,4800,215,4896,215C4992,215,5088,172,5184,186.3C5280,201,5376,272,5472,279.5C5568,287,5664,229,5760,207.8C5856,186,5952,201,6048,229.3C6144,258,6240,301,6336,279.5C6432,258,6528,172,6624,157.7C6720,143,6816,201,6864,229.3L6912,258L6912,430L6864,430C6816,430,6720,430,6624,430C6528,430,6432,430,6336,430C6240,430,6144,430,6048,430C5952,430,5856,430,5760,430C5664,430,5568,430,5472,430C5376,430,5280,430,5184,430C5088,430,4992,430,4896,430C4800,430,4704,430,4608,430C4512,430,4416,430,4320,430C4224,430,4128,430,4032,430C3936,430,3840,430,3744,430C3648,430,3552,430,3456,430C3360,430,3264,430,3168,430C3072,430,2976,430,2880,430C2784,430,2688,430,2592,430C2496,430,2400,430,2304,430C2208,430,2112,430,2016,430C1920,430,1824,430,1728,430C1632,430,1536,430,1440,430C1344,430,1248,430,1152,430C1056,430,960,430,864,430C768,430,672,430,576,430C480,430,384,430,288,430C192,430,96,430,48,430L0,430Z"/></svg>