<?xml version="1.0" standalone="no"?>
<svg xmlns:xlink="http://www.w3.org/1999/xlink" id="wave" style="transform:rotate(0deg); transition: 0.3s" viewBox="0 0 1440 340" version="1.1" xmlns="http://www.w3.org/2000/svg"><defs><linearGradient id="sw-gradient-0" x1="0" x2="0" y1="1" y2="0"><stop stop-color="rgba(153, 86, 100, 1)" offset="0%"/><stop stop-color="rgba(204, 158, 164, 1)" offset="100%"/></linearGradient></defs><path style="transform:translate(0, 0px); opacity:1" fill="url(#sw-gradient-0)" d="M0,306L80,306C160,306,320,306,480,272C640,238,800,170,960,119C1120,68,1280,34,1440,34C1600,34,1760,68,1920,73.7C2080,79,2240,57,2400,79.3C2560,102,2720,170,2880,187C3040,204,3200,170,3360,130.3C3520,91,3680,45,3840,56.7C4000,68,4160,136,4320,175.7C4480,215,4640,227,4800,238C4960,249,5120,261,5280,249.3C5440,238,5600,204,5760,198.3C5920,193,6080,215,6240,192.7C6400,170,6560,102,6720,90.7C6880,79,7040,125,7200,153C7360,181,7520,193,7680,209.7C7840,227,8000,249,8160,238C8320,227,8480,181,8640,170C8800,159,8960,181,9120,198.3C9280,215,9440,227,9600,209.7C9760,193,9920,147,10080,141.7C10240,136,10400,170,10560,153C10720,136,10880,68,11040,79.3C11200,91,11360,181,11440,226.7L11520,272L11520,340L11440,340C11360,340,11200,340,11040,340C10880,340,10720,340,10560,340C10400,340,10240,340,10080,340C9920,340,9760,340,9600,340C9440,340,9280,340,9120,340C8960,340,8800,340,8640,340C8480,340,8320,340,8160,340C8000,340,7840,340,7680,340C7520,340,7360,340,7200,340C7040,340,6880,340,6720,340C6560,340,6400,340,6240,340C6080,340,5920,340,5760,340C5600,340,5440,340,5280,340C5120,340,4960,340,4800,340C4640,340,4480,340,4320,340C4160,340,4000,340,3840,340C3680,340,3520,340,3360,340C3200,340,3040,340,2880,340C2720,340,2560,340,2400,340C2240,340,2080,340,1920,340C1760,340,1600,340,1440,340C1280,340,1120,340,960,340C800,340,640,340,480,340C320,340,160,340,80,340L0,340Z"/><defs><linearGradient id="sw-gradient-1" x1="0" x2="0" y1="1" y2="0"><stop stop-color="rgba(153, 86, 100, 1)" offset="0%"/><stop stop-color="rgba(204, 158, 164, 1)" offset="100%"/></linearGradient></defs><path style="transform:translate(0, 50px); opacity:0.9" fill="url(#sw-gradient-1)" d="M0,238L80,249.3C160,261,320,283,480,272C640,261,800,215,960,170C1120,125,1280,79,1440,79.3C1600,79,1760,125,1920,164.3C2080,204,2240,238,2400,226.7C2560,215,2720,159,2880,153C3040,147,3200,193,3360,226.7C3520,261,3680,283,3840,294.7C4000,306,4160,306,4320,266.3C4480,227,4640,147,4800,141.7C4960,136,5120,204,5280,232.3C5440,261,5600,249,5760,243.7C5920,238,6080,238,6240,226.7C6400,215,6560,193,6720,187C6880,181,7040,193,7200,209.7C7360,227,7520,249,7680,260.7C7840,272,8000,272,8160,232.3C8320,193,8480,113,8640,96.3C8800,79,8960,125,9120,170C9280,215,9440,261,9600,232.3C9760,204,9920,102,10080,73.7C10240,45,10400,91,10560,102C10720,113,10880,91,11040,113.3C11200,136,11360,204,11440,238L11520,272L11520,340L11440,340C11360,340,11200,340,11040,340C10880,340,10720,340,10560,340C10400,340,10240,340,10080,340C9920,340,9760,340,9600,340C9440,340,9280,340,9120,340C8960,340,8800,340,8640,340C8480,340,8320,340,8160,340C8000,340,7840,340,7680,340C7520,340,7360,340,7200,340C7040,340,6880,340,6720,340C6560,340,6400,340,6240,340C6080,340,5920,340,5760,340C5600,340,5440,340,5280,340C5120,340,4960,340,4800,340C4640,340,4480,340,4320,340C4160,340,4000,340,3840,340C3680,340,3520,340,3360,340C3200,340,3040,340,2880,340C2720,340,2560,340,2400,340C2240,340,2080,340,1920,340C1760,340,1600,340,1440,340C1280,340,1120,340,960,340C800,340,640,340,480,340C320,340,160,340,80,340L0,340Z"/></svg>