<?xml version="1.0" standalone="no"?>
<svg xmlns:xlink="http://www.w3.org/1999/xlink" id="wave" style="transform:rotate(0deg); transition: 0.3s" viewBox="0 0 1440 430" version="1.1" xmlns="http://www.w3.org/2000/svg"><defs><linearGradient id="sw-gradient-0" x1="0" x2="0" y1="1" y2="0"><stop stop-color="rgba(153, 86, 100, 1)" offset="0%"/><stop stop-color="rgba(204, 158, 164, 1)" offset="100%"/></linearGradient></defs><path style="transform:translate(0, 0px); opacity:1" fill="url(#sw-gradient-0)" d="M0,0L48,57.3C96,115,192,229,288,272.3C384,315,480,287,576,265.2C672,244,768,229,864,250.8C960,272,1056,330,1152,336.8C1248,344,1344,301,1440,258C1536,215,1632,172,1728,186.3C1824,201,1920,272,2016,286.7C2112,301,2208,258,2304,222.2C2400,186,2496,158,2592,157.7C2688,158,2784,186,2880,172C2976,158,3072,100,3168,71.7C3264,43,3360,43,3456,35.8C3552,29,3648,14,3744,7.2C3840,0,3936,0,4032,35.8C4128,72,4224,143,4320,207.8C4416,272,4512,330,4608,344C4704,358,4800,330,4896,329.7C4992,330,5088,358,5184,308.2C5280,258,5376,129,5472,100.3C5568,72,5664,143,5760,207.8C5856,272,5952,330,6048,329.7C6144,330,6240,272,6336,222.2C6432,172,6528,129,6624,157.7C6720,186,6816,287,6864,336.8L6912,387L6912,430L6864,430C6816,430,6720,430,6624,430C6528,430,6432,430,6336,430C6240,430,6144,430,6048,430C5952,430,5856,430,5760,430C5664,430,5568,430,5472,430C5376,430,5280,430,5184,430C5088,430,4992,430,4896,430C4800,430,4704,430,4608,430C4512,430,4416,430,4320,430C4224,430,4128,430,4032,430C3936,430,3840,430,3744,430C3648,430,3552,430,3456,430C3360,430,3264,430,3168,430C3072,430,2976,430,2880,430C2784,430,2688,430,2592,430C2496,430,2400,430,2304,430C2208,430,2112,430,2016,430C1920,430,1824,430,1728,430C1632,430,1536,430,1440,430C1344,430,1248,430,1152,430C1056,430,960,430,864,430C768,430,672,430,576,430C480,430,384,430,288,430C192,430,96,430,48,430L0,430Z"/><defs><linearGradient id="sw-gradient-1" x1="0" x2="0" y1="1" y2="0"><stop stop-color="rgba(153, 86, 100, 1)" offset="0%"/><stop stop-color="rgba(204, 158, 164, 1)" offset="100%"/></linearGradient></defs><path style="transform:translate(0, 50px); opacity:0.9" fill="url(#sw-gradient-1)" d="M0,258L48,229.3C96,201,192,143,288,157.7C384,172,480,258,576,265.2C672,272,768,201,864,193.5C960,186,1056,244,1152,229.3C1248,215,1344,129,1440,100.3C1536,72,1632,100,1728,129C1824,158,1920,186,2016,207.8C2112,229,2208,244,2304,243.7C2400,244,2496,229,2592,215C2688,201,2784,186,2880,150.5C2976,115,3072,57,3168,78.8C3264,100,3360,201,3456,258C3552,315,3648,330,3744,344C3840,358,3936,373,4032,315.3C4128,258,4224,129,4320,114.7C4416,100,4512,201,4608,229.3C4704,258,4800,215,4896,200.7C4992,186,5088,201,5184,229.3C5280,258,5376,301,5472,329.7C5568,358,5664,373,5760,322.5C5856,272,5952,158,6048,129C6144,100,6240,158,6336,207.8C6432,258,6528,301,6624,322.5C6720,344,6816,344,6864,344L6912,344L6912,430L6864,430C6816,430,6720,430,6624,430C6528,430,6432,430,6336,430C6240,430,6144,430,6048,430C5952,430,5856,430,5760,430C5664,430,5568,430,5472,430C5376,430,5280,430,5184,430C5088,430,4992,430,4896,430C4800,430,4704,430,4608,430C4512,430,4416,430,4320,430C4224,430,4128,430,4032,430C3936,430,3840,430,3744,430C3648,430,3552,430,3456,430C3360,430,3264,430,3168,430C3072,430,2976,430,2880,430C2784,430,2688,430,2592,430C2496,430,2400,430,2304,430C2208,430,2112,430,2016,430C1920,430,1824,430,1728,430C1632,430,1536,430,1440,430C1344,430,1248,430,1152,430C1056,430,960,430,864,430C768,430,672,430,576,430C480,430,384,430,288,430C192,430,96,430,48,430L0,430Z"/></svg>